<svg width="460" height="460" xmlns="http://www.w3.org/2000/svg" xmlns:xlink="http://www.w3.org/1999/xlink" xml:space="preserve" overflow="hidden"><g transform="translate(-93 -48)"><path d="M377.749 330.732 251.865 270.955 203.37 122.713 322.77 128.992 322.158 139.457 218.021 134.046 260.441 263.452 379.178 319.859 473.922 302.503 475.811 312.763 377.749 330.732Z" fill="#F2B9B2"/><path d="M287.803 428.386 217.97 378.206 245.586 256.713 255.847 259.01 229.711 373.612 293.877 419.81 287.803 428.386ZM384.334 334.306 394.033 330.426 426.04 410.418 416.34 414.297 384.334 334.306ZM151.506 441.965 214.702 383.413 221.798 391.071 158.601 449.622 151.506 441.965Z" fill="#F2B9B2"/><path d="M186.831 254.212C186.831 289.537 215.468 318.175 250.793 318.175 286.118 318.175 314.756 289.537 314.756 254.212 314.756 218.887 286.118 190.249 250.793 190.249 215.468 190.249 186.831 218.887 186.831 254.212ZM346.814 326.138C346.814 348.19 364.68 366.057 386.733 366.057 408.786 366.057 426.652 348.19 426.652 326.138 426.652 304.085 408.786 286.218 386.733 286.218 364.68 286.218 346.814 304.085 346.814 326.138ZM186.831 374.225C186.831 388.518 194.437 401.688 206.79 408.835 219.144 415.982 234.356 415.982 246.709 408.835 259.063 401.688 266.669 388.518 266.669 374.225 266.669 352.172 248.803 334.306 226.75 334.306 204.697 334.306 186.831 352.172 186.831 374.225ZM170.751 134.199C170.751 156.251 188.617 174.118 210.67 174.118 232.722 174.118 250.589 156.251 250.589 134.199 250.589 112.146 232.722 94.2799 210.67 94.2799 188.617 94.2799 170.751 112.146 170.751 134.199Z" fill="#F19790"/><path d="M298.676 134.199C298.676 142.775 303.27 150.739 310.723 155.026 318.176 159.314 327.313 159.314 334.766 155.026 342.219 150.739 346.814 142.775 346.814 134.199 346.814 125.623 342.219 117.659 334.766 113.372 327.313 109.083 318.176 109.083 310.723 113.372 303.27 117.659 298.676 125.623 298.676 134.199ZM482.907 325.321C496.077 325.321 506.95 314.652 506.95 301.278 506.95 288.107 496.281 277.234 482.907 277.234 469.736 277.234 458.863 287.903 458.863 301.278 458.863 314.448 469.532 325.321 482.907 325.321ZM394.696 406.232C394.696 414.807 399.291 422.771 406.693 427.059 414.146 431.347 423.283 431.347 430.736 427.059 438.189 422.771 442.783 414.807 442.783 406.232 442.783 397.656 438.189 389.692 430.736 385.404 423.283 381.116 414.146 381.116 406.693 385.404 399.24 389.692 394.696 397.656 394.696 406.232Z" fill="#F2B9B2"/><path d="M266.72 422.312C266.72 430.888 271.314 438.851 278.767 443.139 286.22 447.427 295.358 447.427 302.811 443.139 310.264 438.851 314.858 430.888 314.858 422.312 314.858 413.735 310.264 405.772 302.811 401.484 295.358 397.196 286.22 397.196 278.767 401.484 271.314 405.772 266.72 413.735 266.72 422.312ZM138.744 438.239C138.744 446.814 143.338 454.778 150.791 459.066 158.244 463.354 167.382 463.354 174.834 459.066 182.287 454.778 186.882 446.814 186.882 438.239 186.882 424.966 176.11 414.195 162.838 414.195 149.515 414.195 138.744 424.915 138.744 438.239Z" fill="#F2B9B2"/></g></svg>