<svg width="544" height="544" xmlns="http://www.w3.org/2000/svg" xmlns:xlink="http://www.w3.org/1999/xlink" xml:space="preserve" overflow="hidden"><g transform="translate(-18 -17)"><path d="M284.685 122.683 233.408 71.4 214.177 90.6302 245.446 121.905 245.446 149.105 214.156 180.38 233.408 199.626 284.691 148.327C291.769 141.243 291.766 129.764 284.685 122.683M398.8 225.532 181.2 225.532C171.199 225.561 163.098 233.662 163.068 243.663L163.068 334.332C163.068 344.298 171.228 352.458 181.2 352.458L398.8 352.458C408.772 352.458 416.932 344.298 416.932 334.332L416.932 243.668C416.932 233.697 408.772 225.532 398.8 225.532M380.668 316.2 199.332 316.2 199.332 261.8 380.668 261.8 380.668 316.2M135.868 194.436C135.868 169.412 156.16 149.121 181.2 149.121L275.035 149.121 275.035 121.921 181.2 121.921C141.145 121.921 108.668 154.382 108.668 194.436L108.668 289 135.868 289 135.868 194.436M295.315 455.312 346.592 506.6 365.823 487.37 334.554 456.1 334.554 428.9 365.844 397.62 346.592 378.379 295.309 429.678C288.23 436.757 288.233 448.236 295.315 455.312M444.132 383.564C444.132 408.588 423.84 428.879 398.8 428.879L304.965 428.879 304.965 456.079 398.8 456.079C438.855 456.079 471.332 423.618 471.332 383.564L471.332 289 444.132 289 444.132 383.564" fill="#F89C71"/></g></svg>