<svg width="545" height="545" xmlns="http://www.w3.org/2000/svg" xmlns:xlink="http://www.w3.org/1999/xlink" xml:space="preserve" overflow="hidden"><g transform="translate(-17 -17)"><path d="M302.329 76.8244C298.927 73.4176 294.31 71.5027 289.495 71.5027 284.68 71.5027 280.062 73.4176 276.66 76.8244L225.261 128.202 244.543 147.467 275.858 116.174 275.858 180.5 303.108 180.5 303.108 116.136 334.435 147.484 353.739 128.202 302.329 76.8244M276.671 502.176C280.072 505.586 284.69 507.502 289.505 507.502 294.321 507.502 298.94 505.586 302.34 502.176L353.739 450.793 334.457 431.527 303.141 462.821 303.141 398.5 275.892 398.5 275.892 462.87 244.565 431.521 225.261 450.798 276.671 502.176M76.8244 276.671C69.7311 283.759 69.7311 295.257 76.8244 302.346L128.202 353.739 147.467 334.452 116.174 303.147 180.5 303.147 180.5 275.897 116.136 275.897 147.484 244.565 128.197 225.261 76.8244 276.671M502.176 302.329C505.582 298.927 507.497 294.31 507.497 289.495 507.497 284.68 505.582 280.062 502.176 276.66L450.798 225.266 431.533 244.554 462.827 275.864 398.5 275.864 398.5 303.114 462.864 303.114 431.516 334.452 450.803 353.75 502.176 302.329M334.915 207.75 244.085 207.75C224.105 207.75 207.75 224.089 207.75 244.085L207.75 334.92C207.75 354.889 224.105 371.25 244.085 371.25L334.915 371.25C354.895 371.25 371.25 354.889 371.25 334.92L371.25 244.085C371.25 224.089 354.895 207.75 334.915 207.75M334.915 334.92 244.085 334.92 244.085 244.085 334.915 244.085 334.915 334.92" fill="#F89C71"/></g></svg>