<svg width="491" height="490" xmlns="http://www.w3.org/2000/svg" xmlns:xlink="http://www.w3.org/1999/xlink" xml:space="preserve" overflow="hidden"><g transform="translate(-40 -41)"><path d="M133.41 296.871 133.41 61.2979 111.398 61.2979 111.398 296.871C85.2715 301.991 65.5088 325.104 65.5088 352.714 65.5088 380.324 85.2715 403.389 111.398 408.557L111.398 428.654 133.41 428.654 133.41 408.557C159.537 403.437 179.3 380.324 179.3 352.714 179.3 325.056 159.537 301.991 133.41 296.871M122.404 387.598C103.168 387.598 87.5205 371.95 87.5205 352.714 87.5205 333.478 103.168 317.83 122.404 317.83 141.641 317.83 157.288 333.478 157.288 352.714 157.288 371.902 141.641 387.598 122.404 387.598M255.91 188.583 255.91 61.2979 233.898 61.2979 233.898 188.727C207.963 194.038 188.439 217.007 188.439 244.474 188.439 271.94 208.011 294.909 233.898 300.221L233.898 428.606 255.91 428.606 255.91 300.364C282.229 295.388 302.23 272.228 302.23 244.474 302.23 216.72 282.276 193.56 255.91 188.583M245.335 279.357C226.099 279.357 210.451 263.71 210.451 244.474 210.451 225.237 226.099 209.59 245.335 209.59 264.571 209.59 280.219 225.237 280.219 244.474 280.219 263.71 264.571 279.357 245.335 279.357M424.539 137.765C424.539 110.106 404.681 86.9463 378.458 81.9219L378.458 61.3936 356.446 61.3936 356.446 82.0176C330.415 87.2334 310.748 110.25 310.748 137.812 310.748 165.375 330.415 188.392 356.446 193.607L356.446 428.75 378.458 428.75 378.458 193.703C404.633 188.583 424.539 165.471 424.539 137.765M367.596 172.696C348.359 172.696 332.712 157.049 332.712 137.812 332.712 118.576 348.359 102.929 367.596 102.929 386.832 102.929 402.479 118.576 402.479 137.812 402.527 157.049 386.832 172.696 367.596 172.696" fill="#F89C71" transform="matrix(1.00204 0 0 1 40 41)"/></g></svg>