<svg width="549" height="295" xmlns="http://www.w3.org/2000/svg" xmlns:xlink="http://www.w3.org/1999/xlink" xml:space="preserve" overflow="hidden"><defs><clipPath id="clip0"><rect x="15" y="94" width="549" height="295"/></clipPath></defs><g clip-path="url(#clip0)" transform="translate(-15 -94)"><path d="M163.019 320.393 57.6793 430.656 45.2582 418.818 161.44 297.232 356.027 451.741 491.475 316.619 503.587 328.765 357.313 474.696 163.019 320.393M64.1644 238.42C62.9281 245.422 56.2489 250.096 49.247 248.86 42.2449 247.624 37.571 240.945 38.8074 233.943 54.7284 143.735 96.9328 99.8322 163.842 108.222 204.571 113.334 229.98 135.723 270.931 189.611L280.659 202.409C312.741 244.391 331.87 260.535 357.21 261.564 402.88 263.451 446.148 220.561 485.745 129.633 488.587 123.114 496.176 120.133 502.695 122.976 509.214 125.819 512.194 133.408 509.352 139.926 465.947 239.518 415.319 289.718 356.147 287.299 320.376 285.806 296.786 265.922 260.209 218.039L250.43 205.172C213.578 156.671 192.047 137.696 160.651 133.75 109.577 127.351 77.958 160.257 64.1644 238.403L64.1644 238.42" fill="#F89C71" transform="matrix(1 0 0 1.00063 15 94)"/></g></svg>