<svg width="439" height="439" xmlns="http://www.w3.org/2000/svg" xmlns:xlink="http://www.w3.org/1999/xlink" xml:space="preserve" overflow="hidden"><g transform="translate(-70 -70)"><path d="M467.844 274.409C459.612 274.409 454.125 279.897 454.125 288.128L454.125 325.169C454.125 371.812 417.084 410.225 369.069 410.225L156.428 410.225 174.262 393.763C177.006 391.019 179.75 386.903 179.75 382.787 179.75 374.556 172.891 367.697 164.659 367.697 160.544 367.697 155.056 369.069 152.312 371.812L105.669 414.341C98.8094 419.828 100.181 429.431 105.669 434.919L152.312 476.075C155.056 478.819 160.544 481.562 164.659 481.562 172.891 481.562 179.75 476.075 181.122 467.844 181.122 462.356 178.378 458.241 174.262 455.497L153.684 436.291 367.697 436.291C430.803 436.291 481.562 385.531 481.562 325.169L481.562 288.128C481.562 279.897 476.075 274.409 467.844 274.409M111.156 308.706C119.387 308.706 124.875 303.219 124.875 294.987L124.875 256.575C124.875 208.559 163.288 170.147 209.931 168.775L422.572 168.775 404.737 185.237C401.994 187.981 399.25 192.097 399.25 196.212 399.25 204.444 406.109 211.303 414.341 211.303 418.456 211.303 423.944 209.931 426.688 207.188L471.959 164.659C478.819 159.172 477.447 149.569 471.959 144.081L425.316 102.925C422.572 100.181 417.084 97.4375 412.969 97.4375 404.737 97.4375 397.878 102.925 396.506 111.156 396.506 116.644 399.25 120.759 403.366 123.503L423.944 142.709 211.303 142.709C148.197 142.709 97.4375 193.469 97.4375 257.947L97.4375 294.987C97.4375 303.219 102.925 308.706 111.156 308.706" fill="#F89C71"/><path d="M303.219 358.094 303.219 220.906 282.641 220.906 248.344 245.6 255.203 263.434 281.269 245.6 281.269 358.094 303.219 358.094Z" fill="#F89C71"/></g></svg>