<svg width="445" height="445" xmlns="http://www.w3.org/2000/svg" xmlns:xlink="http://www.w3.org/1999/xlink" xml:space="preserve" overflow="hidden"><g transform="translate(-67 -67)"><path d="M253.591 199.861C253.083 199.861 252.57 199.839 252.057 199.792L171.358 192.352C162.479 191.535 154.514 186.442 150.046 178.737 145.614 171.084 145.153 161.728 148.817 153.71L182.896 79.0811C186.685 70.7851 196.48 67.1304 204.776 70.9198 213.072 74.7093 216.727 84.5045 212.937 92.8004L182.165 160.181 255.086 166.903C264.169 167.742 270.853 175.782 270.014 184.864 269.223 193.43 262.026 199.861 253.591 199.861M282.004 349.614C277.644 349.615 273.461 347.891 270.37 344.816 267.25 341.716 265.494 337.499 265.494 333.1L265.494 240.898C265.494 231.776 272.886 224.384 282.008 224.384 291.13 224.384 298.522 231.776 298.522 240.898L298.522 316.465 374.067 315.935 374.185 315.935C383.25 315.935 390.633 323.253 390.694 332.331 390.759 341.453 383.415 348.897 374.298 348.962L282.125 349.61C282.078 349.614 282.038 349.614 282.004 349.614" fill="#F89C71"/><path d="M289.5 509.571C262.122 509.571 235.557 504.204 210.539 493.622 186.381 483.405 164.691 468.782 146.066 450.156 127.44 431.531 112.817 409.841 102.6 385.683 92.0182 360.665 86.6513 334.1 86.6513 306.722 86.6513 294.867 87.6855 282.981 89.7193 271.396 91.2968 262.413 99.8579 256.412 108.84 257.989 117.823 259.567 123.824 268.128 122.247 277.11 120.543 286.814 119.679 296.779 119.679 306.722 119.679 400.359 195.859 476.539 289.5 476.539 383.137 476.539 459.321 400.359 459.321 306.722 459.321 213.085 383.141 136.901 289.5 136.901 250.332 136.901 212.12 150.55 181.896 175.334 174.843 181.118 164.439 180.088 158.655 173.035 152.871 165.982 153.901 155.578 160.954 149.794 178.698 135.241 198.584 123.894 220.06 116.072 242.284 107.976 265.646 103.869 289.504 103.869 316.882 103.869 343.448 109.236 368.466 119.818 392.624 130.034 414.313 144.658 432.939 163.283 451.564 181.909 466.188 203.598 476.404 227.756 486.986 252.774 492.353 279.34 492.353 306.718 492.353 334.096 486.986 360.661 476.404 385.679 466.188 409.837 451.564 431.526 432.939 450.152 414.313 468.778 392.619 483.405 368.461 493.626 343.443 504.208 316.878 509.571 289.5 509.571Z" fill="#F89C71"/></g></svg>