<svg width="677" height="677" xmlns="http://www.w3.org/2000/svg" xmlns:xlink="http://www.w3.org/1999/xlink" xml:space="preserve" overflow="hidden"><g transform="translate(37 49)"><path d="M312.995 292.25 313.094 292.137 313.192 292.25 313.094 292.349 312.995 292.25M218.991 345.916C189.014 375.842 140.457 375.814 110.514 345.854 80.5712 315.894 80.5712 267.337 110.514 237.378 140.457 207.417 189.014 207.389 218.991 237.315L273.291 292.039 293.32 272.152 239.018 217.992C198.022 177.06 131.611 177.094 90.6568 218.069 49.7029 259.045 49.7029 325.456 90.6568 366.431 131.611 407.406 198.022 407.441 239.018 366.509L293.32 312.208 273.291 292.321 218.991 345.916" fill="#F89C71"/><path d="M495.855 217.992C476.171 198.277 449.456 187.199 421.597 187.199 393.738 187.199 367.022 198.277 347.338 217.992L293.178 272.152 313.065 292.039 367.225 237.879C397.229 207.817 445.926 207.786 475.968 237.809 506.01 267.831 506.01 316.528 475.968 346.551 445.926 376.574 397.229 376.542 367.225 346.481L313.065 292.321 293.178 312.208 347.338 366.509C388.723 405.214 453.345 404.134 493.413 364.066 533.48 323.999 534.561 259.377 495.855 217.992M273.207 292.264 273.306 292.166 273.405 292.264 273.306 292.363 273.207 292.264" fill="#F89C71"/><path d="M312.924 292.18 313.065 292.039 293.178 272.152 273.151 292.039 273.291 292.18 273.151 292.321 293.178 312.208 313.065 292.321 312.924 292.18Z" fill="#F89C71"/></g></svg>