<svg width="459" height="376" xmlns="http://www.w3.org/2000/svg" xmlns:xlink="http://www.w3.org/1999/xlink" xml:space="preserve" overflow="hidden"><defs><clipPath id="clip0"><rect x="60" y="77" width="459" height="376"/></clipPath></defs><g clip-path="url(#clip0)" transform="translate(-60 -77)"><path d="M261.11 179.513C270.123 179.513 277.43 172.207 277.43 163.194L277.43 130.555C277.43 121.542 270.123 114.236 261.11 114.236 252.097 114.236 244.791 121.542 244.791 130.555L244.791 163.194C244.791 172.207 252.097 179.513 261.11 179.513ZM123.358 214.943C115.971 209.78 105.796 211.584 100.634 218.971 95.4707 226.359 97.2743 236.533 104.662 241.696 104.811 241.8 104.961 241.901 105.113 242L132.171 260.245C139.619 265.288 149.745 263.338 154.788 255.89 154.799 255.873 154.811 255.856 154.822 255.839 159.859 248.367 157.886 238.227 150.416 233.188ZM413.517 216.199C407.607 209.395 397.3 208.67 390.495 214.58 390.493 214.581 390.492 214.582 390.491 214.584L365.848 235.995C359.043 241.907 358.32 252.217 364.233 259.021 370.145 265.826 380.454 266.55 387.259 260.637L411.902 239.226C418.706 233.316 419.431 223.008 413.521 216.204 413.52 216.202 413.518 216.201 413.517 216.199ZM309.758 375.346C309.758 374.024 309.905 372.735 309.579 371.397L276.94 240.842C276.761 240.107 276.287 239.569 276.01 238.883 275.569 237.79 275.178 236.713 274.509 235.734 273.937 234.885 273.219 234.232 272.518 233.514 271.751 232.731 271.033 231.98 270.119 231.36 269.221 230.756 268.226 230.397 267.23 229.989 266.496 229.679 265.892 229.173 265.076 228.977 264.815 228.912 264.57 228.994 264.309 228.945 263.264 228.733 262.204 228.798 261.11 228.798 260.033 228.798 258.972 228.733 257.928 228.945 257.667 228.994 257.406 228.912 257.145 228.977 256.312 229.19 255.692 229.712 254.925 230.038 253.962 230.446 253.016 230.789 252.135 231.36 251.172 231.997 250.421 232.796 249.621 233.596 248.936 234.281 248.267 234.918 247.712 235.734 247.043 236.713 246.651 237.774 246.211 238.867 245.933 239.552 245.46 240.107 245.264 240.842L212.625 371.397C212.283 372.735 212.446 374.041 212.446 375.346L212.152 375.346C212.152 376.064 212.332 376.717 212.364 377.435L212.43 378.104C213.898 403.791 235.065 424.304 261.11 424.304 287.156 424.304 308.322 403.791 309.791 378.104L309.856 377.435C309.889 376.733 310.069 376.064 310.069 375.346ZM261.11 391.665C252.583 391.613 245.551 384.967 245.019 376.456L261.11 312.059 277.201 376.439C276.686 384.961 269.647 391.621 261.11 391.665Z" fill="#BC84A8" transform="matrix(1.0045 0 0 1 27.2144 12.2789)"/><path d="M201.832 218.178 315.601 218.178 315.601 427.067 201.832 427.067Z" fill="#FFFFFF" transform="matrix(1.0045 0 0 1 27.2144 12.2789)"/><path d="M261.11 65.2776C135.125 65.2776 32.6388 167.763 32.6388 293.749 32.6388 345.025 49.2356 393.461 80.6178 433.835 86.1416 440.951 96.3887 442.243 103.505 436.719 110.622 431.195 111.913 420.948 106.389 413.831 106.388 413.83 106.387 413.829 106.386 413.827 79.6067 379.543 65.1286 337.252 65.2776 293.749 65.2776 185.764 153.125 97.9164 261.11 97.9164 369.096 97.9164 456.943 185.764 456.943 293.749 456.943 337.681 442.729 379.214 415.818 413.827 410.29 420.911 411.551 431.136 418.635 436.664 418.653 436.678 418.672 436.693 418.69 436.707 425.749 442.239 435.956 441.001 441.487 433.942 441.515 433.906 441.543 433.871 441.57 433.835 472.849 393.855 489.76 344.51 489.582 293.749 489.582 167.763 387.096 65.2776 261.11 65.2776Z" fill="#BC84A8" transform="matrix(1.0045 0 0 1 27.2144 12.2789)"/><path d="M888.147 597.75C889.337 594.577 890.021 591.334 890.021 588.037 890.021 540.259 813.53 540.259 788.391 540.259L788.391 555.441C836.224 555.441 864.313 563.097 872.354 578.165 848.207 562.075 805.884 562.056 788.396 562.056L788.396 561.69C787.439 561.69 692.646 562.176 692.646 604.113 692.646 608.04 693.539 611.605 695.14 614.897 693.544 618.209 692.646 621.864 692.646 625.915 692.646 629.712 693.485 633.174 694.987 636.377 693.479 639.615 692.646 643.184 692.646 647.111 692.646 653.323 694.649 658.729 698.685 663.355 694.942 667.763 692.646 673.039 692.646 679.509 692.646 704.444 724.925 716.572 791.336 716.572 843.909 716.572 890.021 691.731 890.021 663.424 890.021 656.889 888.414 651.049 885.782 645.728 888.499 641.018 890.021 636.089 890.021 631.037 890.021 626.733 889.387 622.836 888.236 619.265 889.356 616.186 890.021 613.038 890.021 609.84 890.021 605.412 889.356 601.396 888.147 597.752ZM871.204 619.23C869.86 621.094 868.13 622.983 866.077 624.847 865.269 624.33 864.446 623.816 863.618 623.315 866.152 621.823 868.537 620.261 870.763 618.63 870.914 618.838 871.075 619.029 871.205 619.232ZM744.47 644.844C731.113 642.846 721.122 639.856 714.983 636.013 716.466 634.938 718.117 633.912 719.971 632.949 736.309 638.433 759.965 641.175 791.336 641.175 811.397 641.175 830.492 637.541 846.468 631.492 848.476 632.37 850.414 633.291 852.273 634.278 837.656 641.978 816.653 647.789 791.336 647.789 790.33 647.789 789.383 647.737 788.396 647.716L788.396 642.39C778.926 642.39 761.71 642.487 744.47 644.8ZM819.767 623.36C811.07 625.001 801.58 625.993 791.336 625.993 775.316 625.993 761.294 625.217 749.518 623.756 763.317 621.123 777.82 619.864 788.396 619.864L788.396 620.099C798.05 620.103 808.997 621.199 819.767 623.356ZM846.646 615.198C827.641 608.049 805.77 604.925 788.391 604.925L788.391 604.689C787.766 604.689 747.52 604.903 719.406 616.564 717.939 615.91 716.62 615.215 715.42 614.496 731.083 603.578 767.437 598.68 788.386 598.68L788.386 598.444C820.789 598.444 844.167 601.95 858.377 608.891 854.936 611.117 851.039 613.245 846.646 615.203ZM714.26 652.584C713.139 653.078 712.009 653.551 710.953 654.086 709.599 652.683 708.662 651.191 708.191 649.614 710.045 650.665 712.068 651.657 714.26 652.584ZM744.827 660.245C757.868 662.044 773.298 662.977 791.336 662.977 820.372 662.977 847.404 655.375 865.815 643.823 866.248 644.251 866.622 644.689 867.025 645.122 854.405 657.304 827.229 668.991 791.331 668.991 765.216 668.991 744.351 666.958 730.017 663.2 734.142 662.084 739.061 661.088 744.827 660.244ZM788.396 576.871 788.396 577.235C833.794 577.235 861.402 584.132 870.971 597.718 870.857 597.881 870.695 598.044 870.574 598.212 846.174 583.263 805.462 583.243 788.396 583.243L788.396 583.479C787.686 583.479 735.352 583.766 708.369 601.031 713.763 584.208 762.702 576.864 788.396 576.864ZM791.336 701.383C739.046 701.383 707.829 693.203 707.829 679.508 707.829 677.956 708.394 675.343 711.185 672.457 727.26 680.301 753.852 684.173 791.336 684.173 825.286 684.173 856.449 673.781 874.338 658.832 874.625 660.324 874.845 661.841 874.845 663.423 874.845 678.526 841.535 701.383 791.337 701.383Z" fill="#BC84A8" transform="matrix(1.0045 0 0 1 -510.642 -297.439)"/></g></svg>