<svg width="487" height="487" xmlns="http://www.w3.org/2000/svg" xmlns:xlink="http://www.w3.org/1999/xlink" xml:space="preserve" overflow="hidden"><g transform="translate(-46 -46)"><path d="M215.568 226.293 195.418 226.293 182.825 178.439 182.573 178.439 170.483 226.293 150.084 226.293 127.416 155.017 148.068 155.017 161.164 203.373 161.416 203.373 173.255 155.017 192.396 155.017 204.485 203.373 204.737 203.373 217.833 155.017 237.983 155.017 215.568 226.293ZM263.923 190.78C263.923 193.552 264.176 196.321 264.681 199.093 265.185 201.862 266.192 204.13 267.45 206.397 268.711 208.662 270.474 210.173 272.739 211.687 275.007 212.945 277.779 213.699 281.052 213.699 284.326 213.699 287.095 212.945 289.363 211.687 291.63 210.425 293.393 208.662 294.652 206.397 295.91 204.13 296.92 201.862 297.421 199.093 297.923 196.35 298.176 193.568 298.178 190.78 298.178 188.01 297.925 185.241 297.421 182.469 296.92 179.699 295.91 177.18 294.652 175.164 293.393 173.149 291.63 171.386 289.363 169.876 287.095 168.365 284.326 167.86 281.052 167.86 277.779 167.86 275.007 168.617 272.739 169.876 270.474 171.137 268.711 172.9 267.45 175.164 266.192 177.18 265.185 179.699 264.681 182.469 264.176 184.989 263.923 187.758 263.923 190.78ZM244.278 190.78C244.278 184.989 245.035 179.952 246.798 175.164 248.561 170.632 251.081 166.602 254.355 163.328 257.628 160.054 261.407 157.534 265.939 155.771 270.474 154.008 275.511 153.002 281.052 153.002 286.594 153.002 291.63 154.008 296.415 155.771 300.947 157.534 304.978 160.054 307.999 163.328 311.276 166.602 313.793 170.632 315.556 175.164 317.319 179.699 318.076 184.989 318.076 190.78 318.076 196.573 317.319 201.61 315.556 206.145 313.793 210.677 311.276 214.708 307.999 217.982 304.726 221.255 300.947 223.775 296.415 225.538 291.882 227.301 286.843 228.056 281.052 228.056 275.511 228.056 270.474 227.301 265.939 225.538 261.407 223.775 257.628 221.255 254.355 217.982 251.081 214.708 248.561 210.677 246.798 206.145 245.035 201.61 244.278 196.321 244.278 190.78ZM330.919 155.017 349.558 155.017 349.558 168.365 349.81 168.365C350.817 166.097 352.078 164.082 353.589 162.319 355.099 160.556 356.862 158.793 358.878 157.534 360.893 156.276 363.158 155.267 365.425 154.513 367.693 153.756 370.21 153.504 372.73 153.504 373.989 153.504 375.499 153.756 377.01 154.26L377.01 172.395C376.004 172.142 374.998 172.142 373.737 171.89 372.478 171.638 371.219 171.638 369.958 171.638 366.432 171.638 363.41 172.142 360.893 173.401 358.373 174.662 356.358 176.173 354.847 178.188 353.336 180.201 352.328 182.72 351.574 185.49 350.817 188.262 350.565 191.283 350.565 194.557L350.565 226.796 330.919 226.796 330.919 155.017ZM435.192 190.53C435.192 187.506 434.94 184.737 434.436 181.965 433.932 179.195 432.925 176.927 431.667 174.663 430.406 172.648 428.643 170.884 426.377 169.624 424.362 168.365 421.591 167.611 418.317 167.611 415.043 167.611 412.271 168.365 410.258 169.624 408.095 170.826 406.275 172.561 404.969 174.663 403.708 176.675 402.701 179.195 401.945 181.965 401.443 184.737 400.938 187.506 400.938 190.53 400.938 193.299 401.19 196.069 401.945 198.84 402.701 201.61 403.708 204.13 404.969 206.145 406.48 208.41 408.243 210.173 410.258 211.434 412.271 212.693 415.043 213.45 418.065 213.45 421.338 213.45 423.858 212.693 426.125 211.434 428.391 210.173 429.904 208.41 431.415 206.145 432.673 203.878 433.68 201.61 434.184 198.84 434.94 196.321 435.192 193.299 435.192 190.53ZM435.442 217.225 435.192 217.225C432.925 221.003 429.903 223.775 426.125 225.538 422.347 227.301 418.065 228.056 413.532 228.056 408.243 228.056 403.456 227.049 399.427 225.034 395.397 223.019 392.123 220.249 389.351 216.723 386.582 213.197 384.819 209.166 383.308 204.382 382.049 199.847 381.293 195.062 381.293 190.025 381.293 185.241 382.049 180.706 383.308 176.174 384.567 171.638 386.582 167.86 389.351 164.334 391.871 160.808 395.145 158.291 399.175 156.023 403.206 154.008 407.739 153.002 413.027 153.002 417.31 153.002 421.338 154.008 425.116 155.771 428.895 157.534 431.917 160.306 434.184 163.833L434.436 163.833 434.436 127.815 454.081 127.815 454.081 226.293 435.442 226.293 435.442 217.225ZM106.762 289.512C105.755 282.459 101.473 278.681 94.1683 278.681 91.3989 278.681 89.1318 279.183 87.3683 280.444 85.6053 281.703 84.0945 283.214 82.8358 285.229 81.5753 287.245 80.8208 289.259 80.3166 291.777 79.8117 294.044 79.5621 296.563 79.5621 298.829 79.5621 301.096 79.8117 303.364 80.3166 305.629 80.8208 307.897 81.5753 310.164 82.5837 311.927 83.5903 313.69 85.1011 315.453 87.1162 316.459 88.8797 317.72 91.1468 318.223 93.9162 318.223 97.9468 318.223 101.221 316.964 103.488 314.696 105.755 312.431 107.014 309.408 107.771 305.38L124.392 305.38C123.386 313.691 120.112 319.986 114.823 324.269 109.534 328.552 102.734 330.816 94.4203 330.816 89.636 330.816 85.3532 330.062 81.5753 328.551 77.5471 327.038 74.2733 324.772 71.5014 322.001 68.7319 319.231 66.7169 315.706 65.2061 311.927 63.6946 307.897 62.9383 303.616 62.9383 299.081 62.9383 294.296 63.6946 289.761 64.9533 285.734 66.4641 281.703 68.4798 277.925 71.2493 274.903 74.0206 271.881 77.295 269.614 81.325 267.851 85.3532 266.088 89.8881 265.331 94.9254 265.331 98.7035 265.331 102.229 265.836 105.503 266.842 109.029 267.851 112.051 269.362 114.571 271.377 117.34 273.392 119.355 275.91 121.118 278.681 122.881 281.703 123.89 285.229 124.14 289.007L106.762 289.007 106.762 289.512ZM133.964 243.67 151.09 243.67 151.09 329.809 133.964 329.809 133.964 243.67ZM179.803 298.577C179.803 301.096 180.055 303.616 180.557 305.881 181.062 308.149 181.818 310.416 183.077 312.179 184.336 314.194 185.848 315.705 187.611 316.712 189.624 317.72 191.892 318.475 194.914 318.475 197.937 318.475 200.202 317.97 202.218 316.712 204.233 315.453 205.744 314.194 207.005 312.179 208.264 310.164 209.018 308.149 209.522 305.881 210.026 303.616 210.279 301.096 210.279 298.577 210.279 296.06 210.026 293.54 209.522 291.274 209.018 288.755 208.264 286.74 207.005 284.977 205.744 283.214 204.233 281.703 202.218 280.444 200.202 279.183 197.685 278.681 194.914 278.681 191.892 278.681 189.624 279.183 187.611 280.444 185.596 281.703 184.086 283.214 183.077 284.977 181.818 286.74 181.062 289.007 180.557 291.274 180.055 293.791 179.803 296.312 179.803 298.577ZM162.677 298.577C162.677 293.54 163.431 289.007 164.942 284.977 166.453 280.947 168.72 277.42 171.492 274.651 174.261 271.881 177.787 269.614 181.566 268.103 185.596 266.592 189.877 265.836 194.914 265.836 199.952 265.836 204.233 266.592 208.264 268.103 212.294 269.614 215.568 271.881 218.59 274.651 221.611 277.42 223.626 280.947 225.137 284.977 226.648 289.007 227.405 293.54 227.405 298.577 227.405 303.616 226.648 308.149 225.137 312.179 223.626 316.207 221.359 319.733 218.59 322.505 215.82 325.274 212.294 327.542 208.264 329.053 204.233 330.564 199.952 331.32 194.914 331.32 189.877 331.32 185.596 330.564 181.566 329.053 177.535 327.542 174.261 325.274 171.492 322.505 168.72 319.733 166.453 316.207 164.942 312.179 163.431 308.149 162.677 303.616 162.677 298.577ZM297.172 329.809 280.8 329.809 280.8 320.994 280.548 320.994C278.28 324.52 275.511 327.29 271.985 328.801 268.459 330.314 264.933 331.32 261.407 331.32 256.872 331.32 253.093 330.816 250.072 329.557 247.05 328.298 244.783 326.535 243.02 324.521 241.257 322.253 240.25 319.484 239.494 316.46 238.739 313.186 238.487 309.66 238.487 305.882L238.487 267.347 255.613 267.347 255.613 302.608C255.613 307.645 256.37 311.675 258.132 314.196 259.643 316.713 262.665 317.971 266.696 317.971 271.48 317.971 274.754 316.46 276.77 313.691 278.785 310.919 279.791 306.387 279.791 300.091L279.791 267.348 296.919 267.348 296.919 329.81 297.172 329.81ZM354.343 298.577C354.343 296.06 354.09 293.54 353.588 291.022 353.084 288.755 352.327 286.488 351.068 284.725 349.82 282.972 348.288 281.44 346.536 280.192 344.773 279.183 342.253 278.429 339.484 278.429 336.711 278.429 334.194 278.933 332.431 280.192 330.416 281.199 328.906 282.71 327.896 284.725 326.638 286.488 325.881 288.755 325.379 291.022 324.875 293.289 324.623 295.808 324.623 298.577 324.623 301.096 324.875 303.364 325.379 305.881 325.881 308.401 326.89 310.416 328.148 312.431 329.407 314.444 330.918 315.957 332.933 316.964 334.948 318.223 337.216 318.727 339.736 318.727 342.505 318.727 345.025 318.223 346.788 316.964 348.8 315.957 350.314 314.444 351.32 312.431 352.327 310.416 353.336 308.4 353.84 305.881 354.09 303.616 354.343 301.096 354.343 298.577ZM354.595 322C352.327 325.274 349.81 327.793 346.537 329.304 343.263 330.815 339.484 331.572 335.454 331.572 330.67 331.572 326.639 330.563 323.113 328.8 319.587 327.037 316.566 324.52 314.298 321.496 312.03 318.474 310.267 314.948 309.009 310.918 307.75 306.889 307.246 302.606 307.246 298.325 307.246 294.043 307.75 290.013 309.009 286.234 310.267 282.206 312.03 278.932 314.298 275.908 316.566 272.887 319.587 270.62 322.861 268.604 326.387 266.841 330.418 265.834 334.95 265.834 338.728 265.834 342.254 266.591 345.528 268.102 348.802 269.613 351.574 271.88 353.336 275.154L353.589 275.154 353.589 243.669 370.715 243.669 370.715 329.808 354.595 329.808 354.595 322Z" fill="#F1A19A"/><path d="M406.731 260.295C406.479 258.531 405.722 257.273 404.716 256.516 403.707 255.762 402.197 255.257 400.686 255.257 399.93 255.257 399.175 255.509 398.166 255.762 397.159 256.014 396.403 256.516 395.9 257.273 395.144 258.027 394.639 259.036 394.137 260.295 393.633 261.553 393.381 263.316 393.381 265.331 393.381 266.34 393.633 267.599 393.885 268.605 394.137 269.614 394.64 270.621 395.144 271.629 395.648 272.384 396.403 273.14 397.412 273.645 398.419 274.147 399.427 274.399 400.686 274.399 402.449 274.399 403.959 273.895 404.968 272.888 405.975 271.881 406.731 270.368 406.981 268.355L412.775 268.355C412.271 271.881 411.012 274.399 408.744 276.414 406.731 278.177 403.959 279.183 400.433 279.183 398.418 279.183 396.402 278.933 394.892 278.177 393.381 277.42 391.87 276.414 390.864 275.156 389.854 273.895 388.848 272.384 388.343 270.873 387.839 269.11 387.587 267.346 387.587 265.331 387.587 263.316 387.839 261.553 388.343 259.79 388.848 258.027 389.602 256.516 390.864 255.257 392.122 253.999 393.381 252.99 394.892 252.236 396.654 251.48 398.417 251.227 400.685 251.227 402.196 251.227 403.707 251.48 405.218 251.732 406.731 252.236 407.737 252.738 408.996 253.495 410.005 254.251 411.011 255.257 411.768 256.516 412.523 257.777 412.775 259.036 413.027 260.799L406.731 260.799 406.731 260.295ZM417.562 241.153 423.353 241.153 423.353 278.177 417.562 278.177 417.562 241.153ZM442.244 278.933C440.229 278.933 438.214 278.681 436.451 277.925 434.688 277.17 433.429 276.162 432.168 274.903 430.909 273.645 430.153 272.132 429.65 270.368 429.146 268.605 428.642 266.842 428.642 264.577 428.642 262.562 428.894 260.547 429.65 259.036 430.152 257.273 431.161 255.762 432.168 254.501 433.429 253.242 434.688 252.236 436.451 251.48 438.214 250.725 439.976 250.473 442.244 250.473 444.257 250.473 446.273 250.725 448.036 251.48 449.798 252.236 451.059 253.242 452.318 254.501 453.577 255.762 454.333 257.273 454.836 259.036 455.34 260.799 455.845 262.562 455.845 264.577 455.845 266.592 455.593 268.605 454.836 270.368 454.334 272.132 453.325 273.645 452.318 274.903 451.059 276.162 449.798 277.17 448.036 277.925 446.273 278.429 444.258 278.933 442.244 278.933ZM442.244 274.147C443.503 274.147 444.762 273.895 445.77 273.392 446.756 272.909 447.553 272.111 448.036 271.125 448.54 270.118 449.044 269.11 449.296 268.103 449.546 267.094 449.798 265.836 449.798 264.577 449.798 263.316 449.546 262.31 449.296 261.051 449.079 259.97 448.651 258.943 448.036 258.027 447.534 257.273 446.525 256.516 445.77 255.762 444.761 255.257 443.755 255.005 442.244 255.005 440.983 255.005 439.724 255.257 438.718 255.762 437.709 256.264 436.955 257.02 436.451 258.027 435.947 258.784 435.442 260.042 435.192 261.051 434.94 262.31 434.688 263.316 434.688 264.577 434.688 265.836 434.94 266.842 435.192 268.103 435.442 269.11 435.947 270.118 436.451 271.125 436.955 272.132 437.961 272.636 438.718 273.392 439.725 273.895 440.731 274.147 442.244 274.147ZM484.053 278.177 478.259 278.177 478.259 274.399C477.504 275.658 476.496 276.918 474.985 277.672 473.474 278.429 472.216 278.933 470.703 278.933 467.177 278.933 464.659 278.177 463.148 276.414 461.637 274.651 460.881 272.132 460.881 268.605L460.881 251.732 466.674 251.732 466.674 267.851C466.674 270.118 467.176 271.881 467.933 272.888 468.94 273.895 470.201 274.399 471.711 274.399 472.97 274.399 473.979 274.147 474.733 273.895 475.489 273.392 476.244 272.888 476.748 272.384 477.252 271.629 477.754 270.873 477.754 270.118 478.007 269.11 478.007 268.355 478.007 267.094L478.007 251.48 483.8 251.48 483.8 278.177 484.053 278.177ZM515.536 278.177 509.994 278.177 509.994 274.651C509.239 276.162 507.979 277.42 506.468 277.925 504.957 278.681 503.447 278.933 501.684 278.933 499.669 278.933 497.653 278.681 496.142 277.925 494.631 277.17 493.373 276.162 492.112 274.903 491.105 273.645 490.349 272.132 489.846 270.368 489.342 268.605 489.09 266.842 489.09 264.829 489.09 262.31 489.342 260.295 490.096 258.531 490.853 256.768 491.61 255.257 492.616 254.251 493.623 252.99 494.884 252.236 496.395 251.732 497.906 251.227 499.164 250.975 500.677 250.975 501.432 250.975 502.44 250.975 503.195 251.227 503.951 251.48 504.958 251.732 505.715 251.984 506.469 252.236 507.226 252.738 507.98 253.242 508.737 253.747 509.241 254.501 509.743 255.257L509.743 241.658 515.536 241.658 515.536 278.177ZM494.883 265.079C494.883 266.34 495.135 267.346 495.385 268.355 495.637 269.362 496.142 270.368 496.646 271.377 497.15 272.132 497.905 272.888 498.914 273.392 499.921 273.895 500.926 274.147 502.188 274.147 503.447 274.147 504.705 273.895 505.462 273.392 506.448 272.908 507.245 272.111 507.729 271.125 508.231 270.118 508.736 269.11 508.988 268.103 509.24 267.094 509.492 265.836 509.492 264.577 509.492 261.553 508.736 259.288 507.477 257.525 506.216 255.762 504.453 255.005 502.188 255.005 500.926 255.005 499.668 255.257 498.662 255.762 497.653 256.264 496.899 257.02 496.394 258.027 495.89 259.036 495.385 260.042 495.135 261.051 494.883 262.058 494.883 263.821 494.883 265.079ZM413.784 323.009 413.531 323.009 408.745 303.111 402.701 303.111 397.917 323.009 397.665 323.009 392.375 303.111 386.078 303.111 394.391 329.809 400.686 329.809 405.723 309.912 410.76 329.809 416.805 329.809 425.116 303.111 419.073 303.111 413.784 323.009ZM472.97 302.355C471.964 302.355 471.207 302.607 470.453 302.859 469.697 303.111 468.69 303.615 468.185 304.118 467.681 304.622 466.926 305.379 466.422 306.132 465.918 306.889 465.666 307.644 465.413 308.148L465.413 303.111 459.874 303.111 459.874 329.808 465.665 329.808 465.665 316.963C465.665 315.452 465.917 314.194 466.169 312.932 466.674 311.673 467.176 310.918 467.68 310.162 468.436 309.407 469.191 308.904 469.948 308.4 470.703 307.896 471.711 307.896 472.718 307.896L473.979 307.896C474.481 307.896 474.733 307.896 475.237 308.148L475.237 302.355 472.97 302.355ZM497.15 292.785 497.15 306.386C496.646 305.629 496.142 305.127 495.385 304.37 494.631 303.866 493.874 303.364 493.12 303.111 492.364 302.859 491.609 302.607 490.6 302.356 489.845 302.103 488.837 302.103 488.082 302.103 486.569 302.103 485.311 302.356 483.8 302.859 482.289 303.364 481.28 304.118 480.021 305.38 478.763 306.638 478.006 307.897 477.504 309.66 476.748 311.423 476.495 313.438 476.495 315.957 476.495 317.97 476.747 319.734 477.251 321.497 477.753 323.259 478.51 324.772 479.517 326.032 480.525 327.291 481.784 328.299 483.547 329.054 485.058 329.809 487.073 330.062 489.089 330.062 490.851 330.062 492.362 329.81 493.873 329.054 495.384 328.298 496.645 327.291 497.399 325.78L497.399 329.305 502.94 329.305 502.94 292.281 497.149 292.281 497.149 292.785ZM496.898 319.986C496.646 320.994 496.142 322 495.637 323.009 495.135 324.016 494.379 324.52 493.372 325.274 492.363 325.779 491.357 326.031 490.095 326.031 488.837 326.031 487.83 325.779 486.822 325.274 485.905 324.811 485.124 324.116 484.557 323.259 483.942 322.344 483.513 321.318 483.296 320.238 483.044 319.231 482.794 317.97 482.794 316.965 482.794 315.706 483.044 314.697 483.296 313.438 483.513 312.358 483.942 311.331 484.557 310.416 485.059 309.408 485.815 308.653 486.822 308.149 487.831 307.645 488.837 307.392 490.348 307.392 492.616 307.392 494.379 308.149 495.637 309.912 496.898 311.675 497.652 313.944 497.652 316.965 497.4 317.72 497.15 318.727 496.898 319.986ZM453.829 310.918C453.325 309.155 452.318 307.645 451.309 306.386 450.05 305.127 448.792 304.118 447.029 303.364 445.266 302.607 443.503 302.355 441.235 302.355 438.968 302.355 437.205 302.607 435.442 303.364 433.679 304.118 432.42 305.127 431.161 306.386 429.902 307.645 429.146 309.155 428.642 310.918 428.14 312.681 427.635 314.444 427.635 316.459 427.635 318.475 427.887 320.49 428.642 322.253 429.146 324.016 430.152 325.527 431.161 326.787 432.42 328.046 433.679 329.054 435.442 329.809 437.205 330.564 438.968 330.816 441.235 330.816 443.503 330.816 445.266 330.564 447.029 329.809 448.792 329.054 450.05 328.046 451.309 326.787 452.57 325.527 453.324 324.016 453.829 322.253 454.333 320.49 454.836 318.728 454.836 316.459 454.586 314.444 454.333 312.431 453.829 310.918ZM448.288 319.986C448.036 320.994 447.533 322 447.029 323.009 446.525 324.016 445.518 324.52 444.761 325.274 443.754 325.779 442.746 326.031 441.235 326.031 439.724 326.031 438.718 325.779 437.709 325.274 436.723 324.792 435.925 323.995 435.442 323.009 434.94 322 434.435 320.994 434.183 319.986 433.931 318.978 433.679 317.719 433.679 316.459 433.679 315.201 433.931 314.194 434.183 312.933 434.402 311.853 434.829 310.827 435.442 309.912 435.946 309.156 436.955 308.401 437.709 307.645 438.718 307.142 439.724 306.89 441.235 306.89 442.746 306.89 443.755 307.141 444.761 307.645 445.77 308.149 446.524 308.905 447.029 309.912 447.533 310.919 448.036 311.927 448.288 312.933 448.54 313.943 448.792 315.201 448.792 316.459 448.792 317.72 448.54 318.727 448.288 319.986Z" fill="#F5BBB4"/><path d="M248.309 414.94 256.619 414.94 263.674 441.637 263.923 441.637 270.726 414.94 278.785 414.94 285.08 441.637 285.332 441.637 292.637 414.94 300.698 414.94 289.615 450.702 281.554 450.702 275.007 424.256 274.755 424.256 268.207 450.702 259.897 450.702 248.309 414.94ZM321.602 451.71C318.83 451.71 316.313 451.206 314.045 450.2 311.777 449.191 310.014 447.932 308.504 446.421 306.993 444.658 305.734 442.896 304.978 440.376 304.224 438.11 303.719 435.591 303.719 432.822 303.719 430.05 304.224 427.532 304.978 425.266 305.734 422.997 306.993 420.982 308.504 419.22 310.014 417.456 312.029 416.198 314.045 415.44 316.313 414.434 318.83 413.93 321.602 413.93 324.371 413.93 326.891 414.434 329.156 415.44 331.423 416.45 333.186 417.708 334.697 419.22 336.208 420.731 337.469 422.745 338.223 425.266 338.979 427.533 339.484 430.05 339.484 432.822 339.484 435.591 338.98 438.111 338.223 440.376 337.469 442.643 336.208 444.658 334.697 446.421 333.186 448.184 331.171 449.442 329.156 450.2 327.143 451.205 324.623 451.71 321.602 451.71ZM321.602 445.413C323.365 445.413 324.876 445.163 326.134 444.406 327.393 443.65 328.402 442.643 329.408 441.385 330.164 440.124 330.919 438.865 331.171 437.354 331.675 435.843 331.675 434.333 331.675 432.822 331.675 431.309 331.423 429.798 331.171 428.287 330.669 426.776 330.164 425.518 329.408 424.256 328.654 422.997 327.645 422.244 326.134 421.486 324.876 420.73 323.365 420.48 321.602 420.48 319.839 420.48 318.328 420.73 317.067 421.486 315.808 422.243 314.802 423.249 313.793 424.256 312.787 425.266 312.282 426.776 312.03 428.287 311.526 429.798 311.526 431.309 311.526 432.822 311.526 434.333 311.778 435.843 312.03 437.354 312.535 438.865 313.039 440.124 313.793 441.385 314.55 442.643 315.556 443.65 317.067 444.406 318.328 445.162 319.839 445.413 321.602 445.413ZM346.284 414.94 353.589 414.94 353.589 421.739 353.841 421.739C354.09 420.73 354.595 419.724 355.099 418.967 355.808 418.007 356.657 417.158 357.617 416.45 358.626 415.693 359.632 415.192 360.641 414.687 361.9 414.182 362.906 413.93 364.167 413.93L366.182 413.93C366.432 413.93 366.936 413.93 367.188 414.182L367.188 421.739C366.684 421.739 366.182 421.487 365.425 421.487L363.663 421.487C362.404 421.487 361.143 421.739 359.884 422.244 358.625 422.745 357.616 423.502 356.862 424.508 356.106 425.518 355.352 426.776 354.847 428.287 354.343 429.799 354.091 431.561 354.091 433.576L354.091 450.453 346.285 450.453 346.285 414.94ZM404.212 450.702 396.656 450.702 396.656 445.917 396.404 445.917C395.397 447.932 393.886 449.442 391.871 450.452 389.856 451.458 387.588 451.71 385.576 451.71 382.804 451.71 380.286 451.206 378.271 450.2 376.256 449.191 374.493 447.932 372.982 446.169 371.721 444.406 370.462 442.39 369.958 440.124 369.203 437.858 368.951 435.339 368.951 432.57 368.951 429.296 369.456 426.524 370.21 424.256 370.966 421.991 372.225 419.976 373.736 418.465 375.247 416.954 376.76 415.945 378.773 415.192 380.536 414.435 382.551 414.182 384.566 414.182 385.575 414.182 386.834 414.182 387.84 414.434 389.101 414.687 390.108 414.939 391.114 415.44 392.122 415.945 393.129 416.45 394.137 417.203 395.144 417.961 395.9 418.717 396.403 419.724L396.655 419.724 396.655 401.337 404.464 401.337 404.464 450.702 404.212 450.702ZM376.76 433.323C376.76 434.834 377.01 436.347 377.262 437.858 377.766 439.369 378.271 440.627 379.025 441.887 379.781 443.148 380.788 443.901 382.049 444.658 383.307 445.413 384.818 445.665 386.581 445.665 388.344 445.665 389.855 445.413 391.114 444.658 392.357 443.919 393.397 442.88 394.137 441.637 394.892 440.376 395.648 439.116 395.9 437.606 396.402 436.096 396.402 434.585 396.402 433.071 396.402 429.043 395.396 426.019 393.633 423.755 391.87 421.487 389.35 420.48 386.328 420.48 384.565 420.48 383.055 420.982 381.544 421.739 380.3 422.478 379.262 423.517 378.523 424.76 377.766 426.019 377.261 427.281 376.76 428.791L376.76 433.323Z" fill="#F1A19A"/><path d="M153.861 398.82 143.785 398.82 137.49 374.891 137.238 374.891 131.192 398.82 121.118 398.82 109.786 363.055 120.112 363.055 126.66 387.232 126.912 387.232 132.955 363.055 142.527 363.055 148.573 387.232 148.823 387.232 155.372 363.055 165.446 363.055 153.861 398.82ZM178.04 381.189C178.04 382.7 178.292 383.959 178.544 385.47 178.794 386.731 179.298 387.99 180.055 389.247 180.809 390.257 181.566 391.263 182.825 391.768 183.833 392.523 185.344 392.775 186.855 392.775 188.618 392.775 189.877 392.523 191.137 391.768 192.144 391.012 193.151 390.257 193.907 389.247 194.664 388.242 195.166 386.98 195.418 385.47 195.67 384.211 195.922 382.7 195.922 381.189 195.922 379.679 195.67 378.417 195.418 376.906 195.166 375.647 194.664 374.389 193.907 373.128 193.151 371.87 192.396 371.112 191.137 370.611 190.129 369.854 188.618 369.601 186.855 369.601 185.092 369.601 183.833 369.853 182.825 370.611 181.818 371.365 180.809 372.122 180.055 373.128 179.298 374.137 178.794 375.395 178.544 376.906 178.04 378.165 178.04 379.679 178.04 381.189ZM168.216 381.189C168.216 378.417 168.72 375.647 169.477 373.381 170.231 371.113 171.492 369.101 173.255 367.338 174.766 365.824 176.781 364.313 179.046 363.558 181.314 362.55 183.833 362.297 186.603 362.297 189.374 362.297 191.892 362.802 194.159 363.558 196.427 364.566 198.439 365.824 199.952 367.338 201.463 368.848 202.722 370.863 203.729 373.381 204.737 375.9 204.99 378.417 204.99 381.189 204.99 383.959 204.485 386.731 203.729 388.995 202.974 391.263 201.715 393.278 199.952 394.789 198.19 396.299 196.427 397.558 194.159 398.568 191.892 399.321 189.374 399.826 186.603 399.826 183.833 399.826 181.314 399.321 179.046 398.568 176.781 397.811 174.766 396.552 173.255 394.789 171.742 393.278 170.483 391.263 169.477 388.995 168.72 386.479 168.216 383.959 168.216 381.189ZM211.537 363.307 220.857 363.307 220.857 369.854 221.109 369.854C221.611 368.848 222.115 367.839 222.872 366.832 223.626 365.824 224.635 365.069 225.642 364.313 226.648 363.558 227.657 363.054 228.916 362.802 230.174 362.55 231.183 362.297 232.442 362.297 233.198 362.297 233.7 362.297 234.457 362.55L234.457 371.618C233.952 371.618 233.45 371.365 232.694 371.365L230.931 371.365C229.168 371.365 227.657 371.618 226.398 372.374 225.137 372.875 224.131 373.885 223.374 374.891 222.62 375.9 222.115 377.159 221.863 378.417 221.611 379.679 221.359 381.189 221.359 382.952L221.359 399.071 211.537 399.071 211.537 363.307ZM263.674 380.937C263.674 379.427 263.422 378.165 263.17 376.654 262.918 375.395 262.413 374.137 261.659 373.129 260.902 372.122 260.148 371.365 259.139 370.611 258.132 369.855 256.619 369.602 255.108 369.602 253.598 369.602 252.087 369.854 251.081 370.611 250.072 371.365 249.065 372.122 248.309 373.129 247.554 374.137 247.05 375.396 246.798 376.654 246.546 377.916 246.294 379.427 246.294 380.937 246.294 382.196 246.546 383.707 246.798 384.968 247.05 386.226 247.554 387.485 248.309 388.743 249.065 389.753 249.819 390.758 251.081 391.264 252.087 392.02 253.345 392.27 254.856 392.27 256.37 392.27 257.88 392.02 258.887 391.264 259.896 390.507 260.902 389.753 261.407 388.743 262.16 387.737 262.413 386.479 262.665 384.968 263.422 383.959 263.674 382.448 263.674 380.937ZM263.923 394.285C262.665 396.299 261.154 397.558 259.139 398.568 257.376 399.321 255.108 399.826 252.844 399.826 250.072 399.826 247.804 399.321 245.791 398.315 243.776 397.309 242.014 395.796 240.752 394.033 239.494 392.27 238.487 390.256 237.731 387.99 236.976 385.722 236.724 383.204 236.724 380.685 236.724 378.165 236.976 375.9 237.731 373.633 238.487 371.365 239.494 369.349 240.752 367.839 242.014 366.076 243.776 364.817 245.791 363.81 247.804 362.802 250.072 362.297 252.592 362.297 254.607 362.297 256.619 362.802 258.635 363.558 260.65 364.566 262.16 365.824 263.17 367.587L263.422 367.587 263.422 349.707 273.244 349.707 273.244 398.82 263.923 398.82 263.923 394.285ZM324.119 375.9C323.365 371.87 321.097 369.855 316.815 369.855 315.304 369.855 314.045 370.107 312.787 370.863 311.777 371.618 310.772 372.374 310.266 373.634 309.512 374.64 309.008 375.901 308.756 377.412 308.504 378.67 308.252 380.181 308.252 381.442 308.252 382.701 308.504 383.96 308.756 385.471 309.008 386.732 309.512 387.991 310.014 388.996 310.519 390.006 311.525 391.012 312.535 391.768 313.541 392.523 314.802 392.775 316.313 392.775 318.578 392.775 320.341 392.02 321.855 390.76 323.113 389.501 323.867 387.738 324.12 385.471L333.691 385.471C332.934 390.257 331.171 393.784 328.149 396.3 325.128 398.821 321.097 400.08 316.565 400.08 313.792 400.08 311.525 399.575 309.26 398.821 306.993 397.811 305.23 396.553 303.467 395.042 301.956 393.531 300.697 391.517 299.688 389.248 298.933 386.981 298.429 384.464 298.429 381.944 298.429 379.175 298.933 376.654 299.688 374.138 300.444 371.871 301.703 369.603 303.214 368.092 304.724 366.329 306.74 365.071 309.008 364.062 311.275 363.056 313.792 362.55 316.813 362.55 318.828 362.55 320.844 362.803 322.859 363.308 324.874 363.811 326.638 364.818 328.148 365.825 329.659 366.834 330.918 368.344 331.927 370.108 332.934 371.871 333.438 373.886 333.69 376.153L324.118 376.153 324.118 375.9ZM339.484 349.707 349.306 349.707 349.306 398.82 339.484 398.82 339.484 349.707ZM365.93 381.189C365.93 382.7 366.182 383.959 366.432 385.47 366.684 386.731 367.188 387.99 367.945 389.247 368.699 390.257 369.456 391.263 370.714 391.768 371.721 392.523 373.234 392.775 374.745 392.775 376.508 392.775 377.766 392.523 379.025 391.768 380.034 391.012 381.04 390.257 381.797 389.247 382.552 388.242 383.056 386.98 383.308 385.47 383.56 383.959 383.812 382.7 383.812 381.189 383.812 379.679 383.56 378.417 383.308 376.906 383.056 375.395 382.552 374.389 381.797 373.128 381.041 372.122 380.286 371.112 379.025 370.611 377.766 370.107 376.508 369.601 374.745 369.601 372.982 369.601 371.721 369.853 370.714 370.611 369.708 371.365 368.699 372.122 367.945 373.128 367.188 374.137 366.684 375.395 366.432 376.906 365.93 378.165 365.93 379.679 365.93 381.189ZM356.105 381.189C356.105 378.417 356.61 375.647 357.367 373.381 358.121 371.113 359.379 369.101 361.143 367.338 362.656 365.824 364.669 364.313 366.936 363.558 369.204 362.55 371.721 362.297 374.493 362.297 377.262 362.297 379.782 362.802 382.049 363.558 384.315 364.566 386.33 365.824 387.841 367.338 389.351 368.848 390.612 370.863 391.619 373.381 392.628 375.9 392.878 378.417 392.878 381.189 392.878 383.959 392.376 386.731 391.619 388.995 390.864 391.263 389.604 393.278 387.841 394.789 386.33 396.299 384.315 397.558 382.049 398.568 379.781 399.321 377.262 399.826 374.493 399.826 371.721 399.826 369.203 399.321 366.936 398.568 364.669 397.811 362.656 396.552 361.143 394.789 359.632 393.278 358.373 391.263 357.367 388.995 356.358 386.479 356.105 383.959 356.105 381.189ZM432.925 398.82 423.605 398.82 423.605 393.783 423.353 393.783C422.095 395.796 420.584 397.309 418.569 398.315 416.554 399.321 414.538 399.574 412.523 399.574 410.006 399.574 407.739 399.321 405.976 398.568 404.213 397.811 402.954 396.805 401.945 395.546 400.938 394.285 400.182 392.774 399.93 391.011 399.68 389.247 399.428 387.232 399.428 384.968L399.428 363.055 409.25 363.055 409.25 383.204C409.25 386.226 409.754 388.242 410.509 389.753 411.518 391.263 413.029 392.02 415.296 392.02 418.065 392.02 419.828 391.264 421.089 389.753 422.348 388.242 422.852 385.47 422.852 381.944L422.852 363.307 432.674 363.307 432.674 398.82 432.925 398.82ZM465.666 380.937C465.666 379.427 465.414 378.165 465.164 376.654 464.912 375.395 464.408 374.137 463.651 373.129 462.942 372.168 462.094 371.319 461.133 370.611 460.125 369.855 458.614 369.602 457.103 369.602 455.592 369.602 454.081 369.854 453.072 370.611 452.065 371.365 451.059 372.122 450.303 373.129 449.546 374.137 449.044 375.396 448.792 376.654 448.54 377.916 448.288 379.427 448.288 380.937 448.288 382.196 448.54 383.707 448.792 384.968 449.044 386.226 449.546 387.485 450.303 388.743 451.059 389.753 451.813 390.758 453.072 391.264 454.081 392.02 455.34 392.27 456.851 392.27 458.362 392.27 459.875 392.02 460.881 391.264 461.888 390.507 462.896 389.753 463.401 388.743 464.156 387.737 464.408 386.479 464.66 384.968 465.414 383.959 465.666 382.448 465.666 380.937ZM465.666 394.285C464.407 396.299 462.896 397.558 460.881 398.568 458.866 399.574 456.851 399.826 454.586 399.826 451.814 399.826 449.547 399.321 447.534 398.315 445.519 397.309 443.755 395.796 442.495 394.033 441.236 392.27 440.229 390.256 439.473 387.99 438.718 385.722 438.466 383.204 438.466 380.685 438.466 378.165 438.718 375.9 439.473 373.633 440.229 371.365 441.236 369.349 442.495 367.839 443.756 366.076 445.519 364.817 447.534 363.81 449.546 362.802 451.814 362.297 454.334 362.297 456.349 362.297 458.362 362.802 460.377 363.558 462.392 364.566 463.903 365.824 464.912 367.587L465.164 367.587 465.164 349.707 474.986 349.707 474.986 398.82 465.667 398.82 465.667 394.285Z" fill="#F0ADA0"/></g></svg>