<svg width="541" height="541" xmlns="http://www.w3.org/2000/svg" xmlns:xlink="http://www.w3.org/1999/xlink" xml:space="preserve" overflow="hidden"><g transform="translate(-19 -6)"><path d="M289.5 73.625C158.984 73.625 52.8125 179.796 52.8125 310.312 52.8125 363.432 70.0062 413.61 102.517 455.436 108.241 462.807 118.856 464.144 126.228 458.42 133.6 452.696 134.936 442.08 129.212 434.709 101.469 399.191 86.4707 355.38 86.625 310.312 86.625 198.444 177.631 107.438 289.5 107.438 401.369 107.438 492.375 198.444 492.375 310.312 492.375 355.824 477.65 398.851 449.771 434.709 447.013 438.243 445.777 442.73 446.335 447.178 446.893 451.626 449.201 455.669 452.747 458.411 456.277 461.178 460.767 462.42 465.218 461.862 469.669 461.303 473.712 458.989 476.449 455.436 508.852 414.018 526.372 362.899 526.188 310.312 526.188 179.796 420.016 73.625 289.5 73.625Z" fill="#BC84A8"/><path d="M289.5 191.969C298.837 191.969 306.406 184.4 306.406 175.062L306.406 141.25C306.406 131.913 298.837 124.344 289.5 124.344 280.163 124.344 272.594 131.913 272.594 141.25L272.594 175.062C272.594 184.4 280.163 191.969 289.5 191.969M146.794 228.672C141.789 225.174 135.285 224.647 129.781 227.295 124.278 229.942 120.63 235.352 120.238 241.446 119.847 247.541 122.773 253.373 127.893 256.703L155.924 275.604C159.638 278.119 164.201 279.051 168.604 278.194 173.008 277.338 176.889 274.763 179.39 271.039 184.608 263.298 182.564 252.794 174.825 247.573L146.794 228.672M447.387 229.974C441.263 222.923 430.582 222.173 423.533 228.3L398.004 250.481C390.955 256.607 390.205 267.287 396.331 274.336 402.456 281.385 413.136 282.135 420.185 276.01L445.714 253.829C452.765 247.704 453.514 237.023 447.387 229.974M339.898 394.844C339.898 393.474 340.05 392.139 339.712 390.752L305.899 255.502C305.713 254.742 305.223 254.184 304.935 253.474 304.479 252.341 304.073 251.225 303.38 250.211 302.788 249.332 302.044 248.655 301.317 247.912 300.523 247.1 299.779 246.322 298.832 245.68 297.902 245.054 296.871 244.682 295.84 244.26 295.079 243.939 294.454 243.414 293.608 243.212 293.338 243.144 293.084 243.229 292.814 243.178 291.732 242.958 290.633 243.026 289.5 243.026 288.384 243.026 287.285 242.958 286.203 243.178 285.933 243.229 285.662 243.144 285.392 243.212 284.53 243.431 283.887 243.972 283.093 244.311 282.095 244.733 281.115 245.088 280.202 245.68 279.204 246.339 278.426 247.168 277.598 247.996 276.888 248.706 276.195 249.365 275.62 250.211 274.927 251.225 274.521 252.324 274.065 253.457 273.777 254.167 273.287 254.742 273.084 255.502L239.272 390.752C238.917 392.139 239.086 393.491 239.086 394.844L238.781 394.844C238.781 395.588 238.967 396.264 239.001 397.008L239.069 397.701C240.59 424.311 262.518 445.562 289.5 445.562 316.482 445.562 338.41 424.311 339.931 397.701L339.999 397.008C340.033 396.281 340.219 395.588 340.219 394.844L339.898 394.844M289.5 411.75C280.665 411.696 273.381 404.811 272.83 395.993L289.5 329.281 306.17 395.976C305.635 404.804 298.344 411.704 289.5 411.75" fill="#BC84A8"/></g></svg>