<svg width="447" height="366" xmlns="http://www.w3.org/2000/svg" xmlns:xlink="http://www.w3.org/1999/xlink" xml:space="preserve" overflow="hidden"><g transform="translate(-66 -80)"><path d="M254.166 174.739C262.939 174.739 270.051 167.627 270.051 158.854L270.051 127.083C270.051 118.31 262.939 111.198 254.166 111.198 245.393 111.198 238.281 118.31 238.281 127.083L238.281 158.854C238.281 167.627 245.393 174.739 254.166 174.739ZM120.077 209.226C112.886 204.201 102.983 205.956 97.9571 213.148 92.9316 220.339 94.6872 230.242 101.878 235.268 102.023 235.369 102.17 235.468 102.318 235.564L128.656 253.324C135.906 258.233 145.763 256.334 150.671 249.084 150.682 249.068 150.693 249.051 150.704 249.035 155.607 241.762 153.687 231.891 146.415 226.986ZM402.519 210.449C396.766 203.826 386.733 203.12 380.109 208.873 380.108 208.874 380.107 208.875 380.105 208.877L356.118 229.718C349.494 235.474 348.79 245.509 354.546 252.133 360.301 258.756 370.336 259.46 376.96 253.705L400.947 232.864C407.57 227.111 408.276 217.077 402.523 210.454 402.522 210.452 402.521 210.451 402.519 210.449ZM301.52 365.363C301.52 364.077 301.663 362.822 301.345 361.519L269.575 234.436C269.4 233.721 268.939 233.197 268.669 232.53 268.24 231.466 267.859 230.417 267.208 229.464 266.652 228.638 265.953 228.003 265.27 227.304 264.523 226.541 263.824 225.811 262.935 225.207 262.061 224.619 261.092 224.27 260.123 223.872 259.408 223.571 258.82 223.078 258.026 222.888 257.772 222.824 257.534 222.903 257.279 222.856 256.263 222.649 255.23 222.713 254.166 222.713 253.117 222.713 252.085 222.649 251.068 222.856 250.814 222.903 250.56 222.824 250.306 222.888 249.496 223.094 248.892 223.602 248.145 223.92 247.208 224.317 246.287 224.651 245.429 225.207 244.492 225.826 243.761 226.605 242.983 227.383 242.315 228.05 241.664 228.67 241.124 229.464 240.473 230.417 240.091 231.45 239.663 232.514 239.393 233.181 238.932 233.721 238.741 234.436L206.97 361.519C206.637 362.822 206.796 364.093 206.796 365.363L206.51 365.363C206.51 366.062 206.685 366.698 206.716 367.397L206.78 368.048C208.21 393.052 228.813 413.02 254.166 413.02 279.519 413.02 300.122 393.052 301.552 368.048L301.615 367.397C301.647 366.714 301.822 366.062 301.822 365.363ZM254.166 381.249C245.865 381.198 239.021 374.729 238.503 366.444L254.166 303.76 269.829 366.428C269.327 374.723 262.476 381.205 254.166 381.249Z" fill="#BC84A8" transform="matrix(1.00496 0 0 1 34.0715 17.0006)"/><path d="M196.464 212.376 307.208 212.376 307.208 415.709 196.464 415.709Z" fill="#FFFFFF" transform="matrix(1.00496 0 0 1 34.0715 17.0006)"/><path d="M254.166 63.5415C131.531 63.5415 31.7707 163.302 31.7707 285.937 31.7707 335.848 47.9262 382.996 78.4737 422.297 83.8506 429.224 93.8252 430.481 100.753 425.104 107.68 419.727 108.937 409.752 103.56 402.825 103.559 402.824 103.558 402.823 103.557 402.821 77.4895 369.449 63.3964 328.283 63.5415 285.937 63.5415 180.823 149.052 95.3122 254.166 95.3122 359.279 95.3122 444.79 180.823 444.79 285.937 444.79 328.7 430.954 369.128 404.759 402.821 399.378 409.717 400.605 419.669 407.501 425.051 407.519 425.065 407.537 425.079 407.555 425.092 414.426 430.477 424.361 429.272 429.745 422.401 429.772 422.366 429.799 422.331 429.826 422.297 460.273 383.38 476.735 335.348 476.561 285.937 476.561 163.302 376.801 63.5415 254.166 63.5415Z" fill="#BC84A8" transform="matrix(1.00496 0 0 1 34.0715 17.0006)"/><path d="M115.721 238.674C115.721 250.68 125.412 260.371 137.418 260.371 145.808 260.371 152.896 255.742 156.657 248.799L219.58 248.799C223.196 255.742 230.428 260.371 238.818 260.371 250.824 260.371 260.516 250.68 260.516 238.674 260.516 226.668 250.824 216.976 238.818 216.976 230.428 216.976 223.341 221.605 219.58 228.548L162.009 228.548 232.454 158.103C234.479 158.682 236.648 159.116 238.818 159.116 250.824 159.116 260.516 149.424 260.516 137.418 260.516 125.412 250.824 115.721 238.818 115.721 226.812 115.721 217.121 125.412 217.121 137.418 217.121 139.588 217.41 141.758 218.133 143.783L147.544 214.228 147.544 156.657C154.487 153.04 159.116 145.808 159.116 137.418 159.116 125.412 149.424 115.721 137.418 115.721 125.412 115.721 115.721 125.412 115.721 137.418 115.721 145.808 120.349 152.896 127.293 156.657L127.293 219.58C120.349 223.196 115.721 230.284 115.721 238.674Z" fill="#BC84A8" transform="matrix(1.00496 0 0 1 105.288 150.125)"/></g></svg>