<svg width="491" height="402" xmlns="http://www.w3.org/2000/svg" xmlns:xlink="http://www.w3.org/1999/xlink" xml:space="preserve" overflow="hidden"><defs><clipPath id="clip0"><rect x="44" y="51" width="491" height="402"/></clipPath></defs><g clip-path="url(#clip0)" transform="translate(-44 -51)"><path d="M279.166 69.7915C144.468 69.7915 34.8957 179.364 34.8957 314.062 34.8957 368.883 52.6402 420.668 86.1924 463.834 92.0982 471.443 103.054 472.823 110.663 466.917 118.271 461.012 119.652 450.056 113.746 442.447 113.745 442.446 113.744 442.444 113.743 442.443 85.1114 405.788 69.6321 360.573 69.7915 314.062 69.7915 198.609 163.713 104.687 279.166 104.687 394.618 104.687 488.54 198.609 488.54 314.062 488.54 361.031 473.343 405.436 444.572 442.443 438.661 450.017 440.009 460.948 447.583 466.859 447.603 466.874 447.623 466.89 447.642 466.905 455.189 472.819 466.101 471.495 472.015 463.948 472.045 463.91 472.075 463.872 472.104 463.834 505.545 421.089 523.627 368.333 523.436 314.062 523.436 179.364 413.863 69.7915 279.166 69.7915Z" fill="#BC84A8" transform="matrix(1.00503 0 0 1 8.92868 -18.1961)"/><path d="M236.293 385.07 271.189 120.259 306.085 385.07Z" fill="#BC84A8" transform="matrix(1.00503 0 0 1 16.9457 45.5617)"/></g></svg>