<svg width="439" height="408" xmlns="http://www.w3.org/2000/svg" xmlns:xlink="http://www.w3.org/1999/xlink" xml:space="preserve" overflow="hidden"><g transform="translate(-70 -77)"><path d="M678.268 943.385C594.2 943.385 525.813 1011.77 525.813 1095.84 525.813 1130.05 536.888 1162.38 557.828 1189.32 561.512 1194.07 568.35 1194.93 573.1 1191.25 577.85 1187.56 578.715 1180.73 575.031 1175.98 575.028 1175.97 575.026 1175.97 575.023 1175.97 557.154 1153.09 547.493 1124.87 547.592 1095.84 547.592 1023.78 606.211 965.164 678.268 965.164 750.324 965.164 808.943 1023.78 808.943 1095.84 808.943 1125.15 799.458 1152.87 781.501 1175.97 777.812 1180.69 778.654 1187.52 783.381 1191.2 783.393 1191.21 783.406 1191.22 783.418 1191.23 788.128 1194.92 794.939 1194.1 798.63 1189.39 798.648 1189.36 798.667 1189.34 798.685 1189.32 819.557 1162.64 830.841 1129.71 830.722 1095.84 830.722 1011.77 762.336 943.385 678.268 943.385Z" fill="#BC84A8" transform="matrix(1 0 0 1.00088 -385.034 -796.279)"/><path d="M713.366 919.827 747.969 908.159 736.3 873.552 771.107 919.624ZM578.384 908.293 581.166 906.792 584.037 905.304 586.926 903.872 589.836 902.488 592.766 901.155 595.713 899.874 598.674 898.645 601.656 897.468 604.655 896.338 607.667 895.261 610.694 894.235 613.737 893.261 616.792 892.332 619.859 891.463 622.941 890.645 626.033 889.87 629.135 889.145 632.247 888.479 635.37 887.864 638.503 887.291 641.644 886.768 644.791 886.306 647.948 885.895 651.108 885.52 654.276 885.206 657.447 884.942 660.625 884.733 663.807 884.566 666.988 884.452 670.176 884.412 673.361 884.406 676.553 884.432 679.741 884.491 682.933 884.631 686.121 884.823 689.309 885.063 692.494 885.349 695.679 885.692 698.857 886.085 702.035 886.526 705.206 887.017 708.371 887.557 711.531 888.15 714.685 888.792 717.835 889.485 720.972 890.23 724.105 891.021 727.224 891.866 730.337 892.757 733.44 893.702 736.531 894.697 739.609 895.74 742.677 896.835 745.731 897.978 748.974 899.252 757.42 903.229 750.09 918.802 741.899 914.945 742.424 915.169 739.508 914.023 739.641 914.056 736.714 912.961 736.846 912.994 733.906 911.944 734.041 911.977 731.091 910.978 731.222 911.005 728.262 910.051 728.393 910.077 725.423 909.175 725.558 909.201 722.576 908.345 722.711 908.372 719.719 907.565 719.854 907.592 716.854 906.825 716.989 906.851 713.979 906.139 714.118 906.158 711.102 905.494 711.237 905.514 708.217 904.904 708.352 904.924 705.326 904.351 705.463 904.364 702.43 903.841 702.565 903.854 699.528 903.385 699.666 903.398 696.623 902.977 696.76 902.99 693.717 902.608 693.854 902.622 690.804 902.292 690.944 902.299 687.89 902.021 688.031 902.028 684.977 901.8 685.114 901.806 682.063 901.62 682.203 901.627 679.149 901.494 679.287 901.498 676.234 901.439 676.374 901.442 673.32 901.415 673.46 901.419 670.406 901.425 670.548 901.425 667.498 901.465 667.639 901.462 664.591 901.571 664.732 901.568 661.685 901.724 661.827 901.717 658.787 901.919 658.928 901.912 655.894 902.167 656.032 902.16 653.002 902.463 653.142 902.45 650.119 902.803 650.254 902.79 647.238 903.188 647.377 903.174 644.364 903.62 644.502 903.606 641.5 904.105 641.635 904.092 638.643 904.636 638.777 904.616 635.791 905.209 635.93 905.189 632.952 905.829 633.091 905.809 630.123 906.497 630.261 906.477 627.303 907.214 627.439 907.188 624.495 907.974 624.63 907.947 621.7 908.783 621.835 908.757 618.916 909.64 619.051 909.607 616.145 910.542 616.28 910.509 613.387 911.49 613.522 911.458 610.644 912.487 610.779 912.454 607.918 913.532 608.053 913.499 605.205 914.625 605.336 914.585 602.506 915.759 602.641 915.72 599.825 916.942 599.96 916.902 597.164 918.177 597.295 918.137 594.516 919.455 594.648 919.416 591.886 920.786 592.018 920.74 589.277 922.154 589.408 922.108 586.688 923.575 578.518 908.422" stroke="#BC84A8" stroke-width="3.44307" fill="#BC84A8" transform="matrix(1 0 0 1.00088 -385.034 -796.279)"/><path d="M846.384 1121.85 858.052 1156.45 892.659 1144.78 846.587 1179.59ZM857.918 986.863 859.419 989.646 860.906 992.517 862.339 995.406 863.723 998.315 865.055 1001.25 866.336 1004.19 867.566 1007.15 868.743 1010.14 869.873 1013.13 870.95 1016.15 871.976 1019.17 872.95 1022.22 873.879 1025.27 874.748 1028.34 875.566 1031.42 876.341 1034.51 877.066 1037.61 877.731 1040.73 878.346 1043.85 878.92 1046.98 879.442 1050.12 879.905 1053.27 880.316 1056.43 880.691 1059.59 881.005 1062.76 881.268 1065.93 881.478 1069.1 881.644 1072.29 881.759 1075.47 881.799 1078.66 881.805 1081.84 881.779 1085.03 881.72 1088.22 881.58 1091.41 881.388 1094.6 881.148 1097.79 880.862 1100.97 880.519 1104.16 880.126 1107.34 879.685 1110.51 879.194 1113.69 878.653 1116.85 878.061 1120.01 877.419 1123.16 876.726 1126.31 875.981 1129.45 875.189 1132.58 874.345 1135.7 873.454 1138.82 872.509 1141.92 871.514 1145.01 870.471 1148.09 869.376 1151.16 868.233 1154.21 866.959 1157.45 862.982 1165.9 847.409 1158.57 851.265 1150.38 851.042 1150.9 852.188 1147.99 852.155 1148.12 853.25 1145.19 853.217 1145.33 854.267 1142.39 854.234 1142.52 855.232 1139.57 855.206 1139.7 856.16 1136.74 856.134 1136.87 857.036 1133.9 857.009 1134.04 857.866 1131.06 857.839 1131.19 858.645 1128.2 858.619 1128.33 859.386 1125.33 859.359 1125.47 860.072 1122.46 860.052 1122.6 860.717 1119.58 860.697 1119.72 861.307 1116.7 861.287 1116.83 861.86 1113.81 861.847 1113.94 862.37 1110.91 862.357 1111.04 862.826 1108.01 862.813 1108.15 863.234 1105.1 863.221 1105.24 863.602 1102.2 863.589 1102.33 863.918 1099.28 863.912 1099.42 864.19 1096.37 864.183 1096.51 864.411 1093.46 864.404 1093.59 864.591 1090.54 864.584 1090.68 864.717 1087.63 864.713 1087.77 864.772 1084.71 864.769 1084.85 864.795 1081.8 864.792 1081.94 864.786 1078.89 864.786 1079.03 864.746 1075.98 864.749 1076.12 864.64 1073.07 864.643 1073.21 864.487 1070.16 864.494 1070.31 864.292 1067.27 864.299 1067.41 864.044 1064.37 864.051 1064.51 863.748 1061.48 863.761 1061.62 863.408 1058.6 863.421 1058.73 863.023 1055.72 863.036 1055.86 862.591 1052.84 862.605 1052.98 862.106 1049.98 862.119 1050.11 861.575 1047.12 861.594 1047.26 861.002 1044.27 861.021 1044.41 860.382 1041.43 860.402 1041.57 859.714 1038.6 859.734 1038.74 858.997 1035.78 859.023 1035.92 858.237 1032.97 858.263 1033.11 857.427 1030.18 857.454 1030.31 856.571 1027.4 856.604 1027.53 855.669 1024.62 855.701 1024.76 854.72 1021.87 854.753 1022 853.724 1019.12 853.757 1019.26 852.679 1016.4 852.712 1016.53 851.586 1013.68 851.626 1013.82 850.452 1010.99 850.491 1011.12 849.269 1008.3 849.308 1008.44 848.034 1005.64 848.074 1005.77 846.755 1003 846.795 1003.13 845.425 1000.37 845.471 1000.5 844.057 997.756 844.103 997.887 842.636 995.167 857.789 986.996" stroke="#BC84A8" stroke-width="3.44307" fill="#BC84A8" transform="matrix(1 0 0 1.00088 -385.034 -796.279)"/><path d="M638.193 1232.84 603.59 1244.51 615.259 1279.12 580.453 1233.05ZM773.176 1244.38 770.393 1245.88 767.522 1247.37 764.633 1248.8 761.724 1250.18 758.794 1251.52 755.847 1252.8 752.885 1254.03 749.904 1255.2 746.905 1256.33 743.892 1257.41 740.866 1258.44 737.822 1259.41 734.768 1260.34 731.7 1261.21 728.619 1262.03 725.527 1262.8 722.425 1263.53 719.312 1264.19 716.189 1264.81 713.056 1265.38 709.916 1265.9 706.769 1266.37 703.612 1266.78 700.451 1267.15 697.284 1267.47 694.112 1267.73 690.935 1267.94 687.753 1268.11 684.571 1268.22 681.383 1268.26 678.198 1268.27 675.007 1268.24 671.818 1268.18 668.626 1268.04 665.438 1267.85 662.25 1267.61 659.065 1267.32 655.88 1266.98 652.702 1266.59 649.525 1266.15 646.353 1265.65 643.189 1265.11 640.028 1264.52 636.875 1263.88 633.724 1263.19 630.588 1262.44 627.454 1261.65 624.335 1260.81 621.222 1259.91 618.12 1258.97 615.028 1257.97 611.95 1256.93 608.882 1255.84 605.828 1254.69 602.585 1253.42 594.139 1249.44 601.469 1233.87 609.66 1237.73 609.135 1237.5 612.052 1238.65 611.919 1238.62 614.845 1239.71 614.713 1239.68 617.653 1240.73 617.518 1240.69 620.469 1241.69 620.337 1241.67 623.298 1242.62 623.166 1242.59 626.137 1243.5 626.002 1243.47 628.983 1244.33 628.849 1244.3 631.84 1245.11 631.706 1245.08 634.705 1245.85 634.571 1245.82 637.58 1246.53 637.442 1246.51 640.458 1247.18 640.323 1247.16 643.343 1247.77 643.208 1247.75 646.234 1248.32 646.096 1248.31 649.13 1248.83 648.995 1248.82 652.031 1249.29 651.893 1249.27 654.937 1249.7 654.799 1249.68 657.843 1250.06 657.705 1250.05 660.755 1250.38 660.615 1250.37 663.669 1250.65 663.529 1250.64 666.583 1250.87 666.445 1250.87 669.496 1251.05 669.357 1251.05 672.41 1251.18 672.272 1251.17 675.326 1251.23 675.186 1251.23 678.24 1251.26 678.1 1251.25 681.153 1251.25 681.011 1251.25 684.062 1251.21 683.921 1251.21 686.968 1251.1 686.827 1251.1 689.875 1250.95 689.733 1250.95 692.773 1250.75 692.631 1250.76 695.665 1250.5 695.527 1250.51 698.557 1250.21 698.418 1250.22 701.441 1249.87 701.305 1249.88 704.321 1249.48 704.182 1249.5 707.195 1249.05 707.058 1249.07 710.06 1248.57 709.925 1248.58 712.917 1248.04 712.783 1248.06 715.768 1247.46 715.629 1247.48 718.607 1246.84 718.468 1246.86 721.437 1246.18 721.299 1246.19 724.256 1245.46 724.12 1245.48 727.064 1244.7 726.929 1244.72 729.859 1243.89 729.724 1243.91 732.644 1243.03 732.509 1243.06 735.415 1242.13 735.28 1242.16 738.172 1241.18 738.037 1241.21 740.916 1240.18 740.781 1240.22 743.642 1239.14 743.507 1239.17 746.354 1238.05 746.223 1238.09 749.053 1236.91 748.918 1236.95 751.735 1235.73 751.6 1235.77 754.396 1234.49 754.265 1234.53 757.043 1233.22 756.912 1233.26 759.673 1231.89 759.542 1231.93 762.283 1230.52 762.152 1230.56 764.872 1229.1 773.043 1244.25" stroke="#BC84A8" stroke-width="3.44307" fill="#BC84A8" transform="matrix(1 0 0 1.00088 -385.034 -796.279)"/><path d="M502.685 1046.67 491.016 1012.06 456.41 1023.73 502.482 988.927ZM491.151 1181.65 489.65 1178.87 488.162 1176 486.73 1173.11 485.346 1170.2 484.013 1167.27 482.732 1164.32 481.503 1161.36 480.326 1158.38 479.196 1155.38 478.119 1152.37 477.093 1149.34 476.118 1146.3 475.19 1143.24 474.321 1140.17 473.503 1137.09 472.728 1134 472.003 1130.9 471.337 1127.79 470.722 1124.66 470.149 1121.53 469.626 1118.39 469.164 1115.24 468.753 1112.09 468.378 1108.93 468.064 1105.76 467.8 1102.59 467.591 1099.41 467.424 1096.23 467.31 1093.05 467.27 1089.86 467.264 1086.67 467.29 1083.48 467.349 1080.29 467.489 1077.1 467.68 1073.91 467.921 1070.72 468.207 1067.54 468.55 1064.35 468.943 1061.18 469.383 1058 469.875 1054.83 470.415 1051.66 471.008 1048.5 471.65 1045.35 472.343 1042.2 473.088 1039.06 473.879 1035.93 474.724 1032.81 475.615 1029.7 476.56 1026.59 477.555 1023.5 478.598 1020.42 479.693 1017.36 480.836 1014.3 482.11 1011.06 486.087 1002.61 501.66 1009.94 497.803 1018.13 498.027 1017.61 496.881 1020.53 496.914 1020.39 495.819 1023.32 495.852 1023.19 494.802 1026.13 494.835 1025.99 493.836 1028.94 493.863 1028.81 492.909 1031.77 492.935 1031.64 492.033 1034.61 492.059 1034.48 491.203 1037.46 491.229 1037.32 490.423 1040.31 490.45 1040.18 489.683 1043.18 489.709 1043.04 488.997 1046.05 489.016 1045.92 488.352 1048.93 488.372 1048.8 487.762 1051.82 487.782 1051.68 487.209 1054.71 487.222 1054.57 486.698 1057.6 486.712 1057.47 486.243 1060.51 486.256 1060.37 485.834 1063.41 485.848 1063.27 485.466 1066.32 485.48 1066.18 485.15 1069.23 485.157 1069.09 484.879 1072.14 484.886 1072 484.658 1075.06 484.664 1074.92 484.478 1077.97 484.484 1077.83 484.352 1080.88 484.356 1080.75 484.296 1083.8 484.3 1083.66 484.273 1086.71 484.277 1086.57 484.283 1089.63 484.283 1089.49 484.323 1092.54 484.32 1092.4 484.429 1095.44 484.425 1095.3 484.582 1098.35 484.575 1098.21 484.776 1101.25 484.77 1101.11 485.025 1104.14 485.018 1104 485.321 1107.03 485.308 1106.89 485.661 1109.92 485.648 1109.78 486.045 1112.8 486.032 1112.66 486.477 1115.67 486.464 1115.53 486.963 1118.53 486.95 1118.4 487.494 1121.39 487.474 1121.26 488.067 1124.24 488.047 1124.1 488.687 1127.08 488.667 1126.94 489.354 1129.91 489.335 1129.77 490.072 1132.73 490.046 1132.59 490.832 1135.54 490.805 1135.4 491.641 1138.33 491.615 1138.2 492.498 1141.12 492.465 1140.98 493.4 1143.89 493.367 1143.75 494.348 1146.65 494.315 1146.51 495.345 1149.39 495.312 1149.25 496.39 1152.12 496.357 1151.98 497.483 1154.83 497.443 1154.7 498.617 1157.53 498.578 1157.39 499.8 1160.21 499.76 1160.07 501.035 1162.87 500.995 1162.74 502.313 1165.52 502.274 1165.39 503.644 1168.15 503.598 1168.02 505.012 1170.76 504.966 1170.63 506.433 1173.35 491.279 1181.52" stroke="#BC84A8" stroke-width="3.44307" fill="#BC84A8" transform="matrix(1 0 0 1.00088 -385.034 -796.279)"/><path d="M656.279 1172.57 678.058 1007.29 699.838 1172.57Z" fill="#BC84A8" transform="matrix(1 0 0 1.00088 -385.034 -796.279)"/></g></svg>