<svg width="382" height="382" xmlns="http://www.w3.org/2000/svg" xmlns:xlink="http://www.w3.org/1999/xlink" xml:space="preserve" overflow="hidden"><g transform="translate(-125 -73)"><path d="M222.328 387.926 193.827 387.926C193.79 387.926 193.753 387.889 193.753 387.852L193.753 287.8C193.753 287.763 193.79 287.726 193.827 287.726L222.328 287.726C222.365 287.726 222.403 287.763 222.403 287.8L222.403 387.852C222.403 387.889 222.365 387.926 222.328 387.926ZM276.308 387.926 247.807 387.926C247.77 387.926 247.732 387.889 247.732 387.852L247.732 166.635C247.732 166.597 247.77 166.56 247.807 166.56L276.308 166.56C276.345 166.56 276.382 166.597 276.382 166.635L276.382 387.852C276.345 387.889 276.345 387.926 276.308 387.926ZM330.25 387.926 301.75 387.926C301.712 387.926 301.675 387.889 301.675 387.852L301.675 194.427C301.675 194.389 301.712 194.352 301.75 194.352L330.25 194.352C330.288 194.352 330.325 194.389 330.325 194.427L330.325 387.852C330.325 387.889 330.288 387.926 330.25 387.926ZM384.193 387.926 355.692 387.926C355.655 387.926 355.618 387.889 355.618 387.852L355.618 269.633C355.618 269.596 355.655 269.558 355.692 269.558L384.193 269.558C384.23 269.558 384.268 269.596 384.268 269.633L384.268 387.852C384.268 387.889 384.23 387.926 384.193 387.926ZM438.173 387.926 409.672 387.926C409.635 387.926 409.597 387.889 409.597 387.852L409.597 324.359C409.597 324.322 409.635 324.284 409.672 324.284L438.173 324.284C438.21 324.284 438.247 324.322 438.247 324.359L438.247 387.852C438.247 387.889 438.21 387.926 438.173 387.926Z" fill="#F19790"/><path d="M505.321 415.532 464.622 383.636C462.496 382.405 459.847 383.935 459.847 386.397L459.81 408.257 171.444 408.257 171.444 121.683 192.074 121.645C194.536 121.645 196.065 118.997 194.834 116.87L162.939 76.2082C161.708 74.0818 158.649 74.0818 157.418 76.2082L125.522 116.908C124.291 119.034 125.821 121.683 128.283 121.683L148.726 121.72 148.726 419.672C148.726 425.94 153.837 431.05 160.104 431.05L459.847 431.05 459.884 450.262C459.884 452.724 462.533 454.254 464.659 453.023L505.359 421.127C507.448 419.822 507.448 416.763 505.321 415.532Z" fill="#F19790"/></g></svg>