<svg width="527" height="527" xmlns="http://www.w3.org/2000/svg" xmlns:xlink="http://www.w3.org/1999/xlink" xml:space="preserve" overflow="hidden"><g transform="translate(-26 -26)"><path d="M157.75 289.5C157.75 313.754 138.088 333.417 113.834 333.417 89.5786 333.417 69.9166 313.754 69.9166 289.5 69.9166 265.246 89.5786 245.583 113.834 245.583 138.088 245.583 157.75 265.246 157.75 289.5M333.417 289.5C333.417 313.754 313.754 333.417 289.5 333.417 265.246 333.417 245.583 313.754 245.583 289.5 245.583 265.246 265.246 245.583 289.5 245.583 313.754 245.583 333.417 265.246 333.417 289.5M465.167 333.417C489.421 333.417 509.083 313.754 509.083 289.5 509.083 265.246 489.421 245.583 465.167 245.583 440.912 245.583 421.25 265.246 421.25 289.5 421.25 313.754 440.912 333.417 465.167 333.417" fill="#F89C71"/></g></svg>