<svg width="653" height="654" xmlns="http://www.w3.org/2000/svg" xmlns:xlink="http://www.w3.org/1999/xlink" xml:space="preserve" overflow="hidden"><defs><clipPath id="clip0"><path d="M289.333-40.1843 615.451 285.933 289.333 612.051-36.7843 285.933Z" fill-rule="evenodd" clip-rule="evenodd"/></clipPath><clipPath id="clip1"><path d="M289.333-40.1843 615.451 285.933 289.333 612.051-36.7843 285.933Z" fill-rule="evenodd" clip-rule="evenodd"/></clipPath><clipPath id="clip2"><path d="M289.333-40.1843 615.451 285.933 289.333 612.051-36.7843 285.933Z" fill-rule="evenodd" clip-rule="evenodd"/></clipPath></defs><g transform="translate(37 41)"><g clip-path="url(#clip0)"><g clip-path="url(#clip1)"><g clip-path="url(#clip2)"><path d="M519.941 300.36 519.941 271.506C519.931 270.526 519.138 269.733 518.157 269.723L305.544 269.723 305.544 57.1096C305.534 56.1287 304.741 55.3357 303.76 55.3261L274.906 55.3261C273.926 55.3357 273.133 56.1287 273.123 57.1096L273.123 269.723 60.5096 269.723C59.5287 269.733 58.7357 270.526 58.7261 271.506L58.7261 300.36C58.7357 301.341 59.5287 302.134 60.5096 302.144L273.123 302.144 273.123 514.757C273.133 515.738 273.926 516.531 274.906 516.541L303.76 516.541C304.741 516.531 305.534 515.738 305.544 514.757L305.544 302.144 518.157 302.144C519.138 302.134 519.931 301.341 519.941 300.36Z" fill="#F89C71"/></g></g></g></g></svg>