<svg width="579" height="579" xmlns="http://www.w3.org/2000/svg" xmlns:xlink="http://www.w3.org/1999/xlink" xml:space="preserve" overflow="hidden"><g transform="translate(2 -4)"><path d="M287.5 58.2812C297.493 58.2812 305.594 66.3822 305.594 76.375L305.596 95.2801C401.077 103.886 477.115 179.923 485.719 275.405L504.625 275.406C514.618 275.406 522.719 283.507 522.719 293.5 522.719 303.493 514.618 311.594 504.625 311.594L485.72 311.596C477.114 407.077 401.077 483.115 305.596 491.719L305.594 514.018C305.594 524.01 297.493 532.111 287.5 532.111 277.507 532.111 269.406 524.01 269.406 514.018L269.405 491.72C173.923 483.115 97.8854 407.077 89.2801 311.596L70.375 311.594C60.3822 311.594 52.2812 303.493 52.2812 293.5 52.2812 283.507 60.3822 275.406 70.375 275.406L89.2801 275.404C97.886 179.923 173.923 103.885 269.405 95.2807L269.406 76.375C269.406 66.3822 277.507 58.2812 287.5 58.2812M305.595 131.65 305.594 148.75C305.594 158.743 297.493 166.844 287.5 166.844 277.507 166.844 269.406 158.743 269.406 148.75L269.406 131.65C193.926 139.994 133.994 199.926 125.65 275.405L142.75 275.406C152.743 275.406 160.844 283.507 160.844 293.5 160.844 303.493 152.743 311.594 142.75 311.594L125.65 311.595C133.995 387.074 193.926 447.006 269.405 455.35L269.406 441.643C269.406 431.65 277.507 423.549 287.5 423.549 297.493 423.549 305.594 431.65 305.594 441.643L305.595 455.35C381.074 447.005 441.005 387.074 449.35 311.595L432.25 311.594C422.257 311.594 414.156 303.493 414.156 293.5 414.156 283.507 422.257 275.406 432.25 275.406L449.35 275.405C441.089 200.681 382.267 141.195 307.855 131.916L305.595 131.65M287.5 239.219C317.479 239.219 341.781 263.521 341.781 293.5 341.781 323.479 317.479 347.781 287.5 347.781 257.521 347.781 233.219 323.479 233.219 293.5 233.219 263.521 257.521 239.219 287.5 239.219M287.5 275.406C277.507 275.406 269.406 283.507 269.406 293.5 269.406 303.493 277.507 311.594 287.5 311.594 297.493 311.594 305.594 303.493 305.594 293.5 305.594 283.507 297.493 275.406 287.5 275.406" fill="#F89C71"/></g></svg>